<?xml version="1.0" encoding="UTF-8" standalone="no"?>
<!DOCTYPE svg PUBLIC "-//W3C//DTD SVG 1.1//EN" "http://www.w3.org/Graphics/SVG/1.1/DTD/svg11.dtd">
<svg width="100%" height="100%" viewBox="0 0 100 30" version="1.1" xmlns="http://www.w3.org/2000/svg" xmlns:xlink="http://www.w3.org/1999/xlink" xml:space="preserve" xmlns:serif="http://www.serif.com/" style="fill-rule:evenodd;clip-rule:evenodd;stroke-linejoin:round;stroke-miterlimit:2;">
    <g transform="matrix(0.674642,0,0,0.674642,322.649,-819.394)">
        <g id="layer1">
            <g id="g1927">
                <path id="path1923" d="M-463.204,1220.13C-466.004,1220.13 -468.218,1220.87 -469.844,1222.33C-471.471,1223.77 -472.284,1225.87 -472.284,1228.61C-472.284,1230.56 -471.87,1232.2 -471.043,1233.53C-470.19,1234.84 -469.149,1236.02 -467.922,1237.06L-465.124,1239.49C-464.03,1240.43 -463.164,1241.36 -462.524,1242.29C-461.884,1243.2 -461.563,1244.32 -461.563,1245.65C-461.563,1246.21 -461.684,1246.75 -461.924,1247.25C-462.137,1247.76 -462.617,1248.01 -463.364,1248.01C-463.95,1248.01 -464.457,1247.83 -464.883,1247.45C-465.283,1247.08 -465.604,1246.47 -465.844,1245.61C-466.058,1244.76 -466.177,1243.64 -466.204,1242.25L-472.323,1243.17C-472.243,1245.57 -471.856,1247.54 -471.163,1249.06C-470.469,1250.55 -469.443,1251.65 -468.083,1252.37C-466.723,1253.09 -465.029,1253.45 -463.002,1253.45C-461.269,1253.45 -459.777,1253.09 -458.524,1252.37C-457.244,1251.65 -456.256,1250.68 -455.563,1249.45C-454.87,1248.2 -454.524,1246.81 -454.524,1245.29C-454.524,1243.05 -455.016,1241.17 -456.002,1239.65C-456.962,1238.13 -458.15,1236.78 -459.563,1235.58L-462.243,1233.21C-463.176,1232.39 -463.937,1231.6 -464.524,1230.85C-465.084,1230.08 -465.364,1229.1 -465.364,1227.89C-465.364,1227.34 -465.218,1226.78 -464.924,1226.21C-464.604,1225.65 -464.111,1225.37 -463.444,1225.37C-462.831,1225.37 -462.376,1225.58 -462.083,1225.98C-461.789,1226.35 -461.604,1226.89 -461.524,1227.61C-461.417,1228.31 -461.349,1229.13 -461.323,1230.09L-455.163,1229.33C-455.189,1228.37 -455.311,1227.37 -455.524,1226.33C-455.711,1225.27 -456.083,1224.27 -456.643,1223.33C-457.177,1222.37 -457.977,1221.6 -459.044,1221.01C-460.084,1220.43 -461.47,1220.13 -463.204,1220.13L-463.204,1220.13ZM-412.409,1220.13C-415.209,1220.13 -417.423,1220.87 -419.049,1222.33C-420.676,1223.77 -421.489,1225.87 -421.489,1228.61C-421.489,1230.56 -421.075,1232.2 -420.249,1233.53C-419.395,1234.84 -418.356,1236.02 -417.129,1237.06L-414.329,1239.49C-413.235,1240.43 -412.369,1241.36 -411.729,1242.29C-411.089,1243.2 -410.77,1244.32 -410.77,1245.65C-410.77,1246.21 -410.889,1246.75 -411.129,1247.25C-411.343,1247.76 -411.822,1248.01 -412.569,1248.01C-413.156,1248.01 -413.662,1247.83 -414.088,1247.45C-414.488,1247.08 -414.809,1246.47 -415.049,1245.61C-415.263,1244.76 -415.382,1243.64 -415.409,1242.25L-421.53,1243.17C-421.45,1245.57 -421.063,1247.54 -420.37,1249.06C-419.676,1250.55 -418.65,1251.65 -417.29,1252.37C-415.93,1253.09 -414.236,1253.45 -412.21,1253.45C-410.476,1253.45 -408.982,1253.09 -407.729,1252.37C-406.449,1251.65 -405.463,1250.68 -404.77,1249.45C-404.077,1248.2 -403.729,1246.81 -403.729,1245.29C-403.729,1243.05 -404.223,1241.17 -405.21,1239.65C-406.17,1238.13 -407.357,1236.78 -408.77,1235.58L-411.45,1233.21C-412.383,1232.39 -413.142,1231.6 -413.729,1230.85C-414.289,1230.08 -414.569,1229.1 -414.569,1227.89C-414.569,1227.34 -414.423,1226.78 -414.13,1226.21C-413.809,1225.65 -413.316,1225.37 -412.649,1225.37C-412.036,1225.37 -411.583,1225.58 -411.29,1225.98C-410.996,1226.35 -410.809,1226.89 -410.729,1227.61C-410.623,1228.31 -410.556,1229.13 -410.53,1230.09L-404.37,1229.33C-404.396,1228.37 -404.516,1227.37 -404.729,1226.33C-404.916,1225.27 -405.29,1224.27 -405.85,1223.33C-406.384,1222.37 -407.182,1221.6 -408.249,1221.01C-409.289,1220.43 -410.676,1220.13 -412.409,1220.13L-412.409,1220.13ZM-455.555,1220.58L-451.635,1252.98L-445.315,1252.98L-442.715,1233.41L-439.956,1252.98L-433.715,1252.98L-429.836,1220.58L-435.836,1220.58L-437.795,1239.33L-440.356,1220.61L-445.116,1220.61L-447.555,1239.45L-449.475,1220.58L-455.555,1220.58ZM-429.245,1220.58L-429.245,1252.98L-422.086,1252.98L-422.086,1220.58L-429.245,1220.58ZM-403.131,1220.58L-403.131,1252.98L-394.85,1252.98C-392.05,1252.98 -389.877,1252.62 -388.331,1251.89C-386.757,1251.17 -385.65,1250.05 -385.01,1248.53C-384.37,1246.99 -384.051,1245 -384.051,1242.57L-384.051,1230.82C-384.051,1228.41 -384.37,1226.47 -385.01,1224.98C-385.65,1223.45 -386.757,1222.35 -388.331,1221.65C-389.904,1220.93 -392.104,1220.58 -394.93,1220.58L-403.131,1220.58ZM-378.895,1220.58L-385.016,1252.98L-378.256,1252.98L-377.135,1246.13L-372.375,1246.13L-371.295,1252.98L-364.696,1252.98L-370.737,1220.58L-378.895,1220.58ZM-368.971,1220.58L-368.971,1225.89L-364.09,1225.89L-364.09,1252.98L-356.891,1252.98L-356.891,1225.89L-352.051,1225.89L-352.051,1220.58L-368.971,1220.58ZM-350.155,1220.58L-356.276,1252.98L-349.516,1252.98L-348.395,1246.13L-343.635,1246.13L-342.555,1252.98L-335.956,1252.98L-341.997,1220.58L-350.155,1220.58ZM-395.971,1225.58L-394.891,1225.58C-393.824,1225.58 -393.051,1225.71 -392.571,1225.98C-392.091,1226.24 -391.784,1226.67 -391.651,1227.25C-391.491,1227.84 -391.41,1228.62 -391.41,1229.58L-391.41,1243.69C-391.41,1244.65 -391.478,1245.45 -391.612,1246.09C-391.718,1246.73 -392.01,1247.21 -392.49,1247.53C-392.97,1247.85 -393.757,1248.01 -394.85,1248.01L-395.971,1248.01L-395.971,1225.58ZM-374.776,1229.21L-373.055,1241.85L-376.497,1241.85L-374.776,1229.21ZM-346.036,1229.21L-344.315,1241.85L-347.756,1241.85L-346.036,1229.21Z" style="fill:white;fill-rule:nonzero;"/>
                <g id="path1925" transform="matrix(0.264583,0,0,0.264583,0,0)">
                    <path d="M-1652.05,4659.11L-1654.66,4684.1L-1658.05,4659.34C-1661.85,4659.64 -1665.55,4660.23 -1669.13,4661.12C-1670.5,4661.46 -1671.85,4661.84 -1673.18,4662.27L-1662.82,4735.65L-1639.24,4735.65L-1630.42,4661.96C-1637.83,4660.07 -1645.08,4659.12 -1652.05,4659.11ZM-1673.33,4662.32C-1677.21,4663.57 -1680.91,4665.18 -1684.43,4667.14C-1686.25,4668.16 -1688.01,4669.27 -1689.72,4670.47L-1691.55,4684.55L-1692.75,4672.73C-1700.44,4678.86 -1706.82,4686.92 -1711.68,4696.65L-1706.97,4735.65L-1683.08,4735.65L-1673.33,4662.32ZM-1622.34,4664.36L-1622.34,4735.65L-1611.35,4735.65C-1606.45,4727.5 -1601.08,4719.66 -1595.29,4712.21L-1595.29,4667.78C-1596.07,4667.95 -1596.85,4668.14 -1597.62,4668.34C-1600.63,4669.1 -1603.6,4669.99 -1606.53,4671.01C-1611.82,4668.36 -1617.1,4666.14 -1622.34,4664.36ZM-1572.1,4665.12C-1576.61,4665.13 -1581.12,4665.44 -1585.59,4666.03C-1582.96,4669.45 -1579.94,4672.6 -1576.55,4675.48L-1568.02,4682.91C-1561.8,4677.35 -1555.36,4672.24 -1548.74,4667.64C-1556.4,4665.94 -1564.24,4665.09 -1572.1,4665.12ZM-1651.49,4691.27C-1647.45,4691.17 -1643.85,4693.9 -1642.85,4697.82C-1641.69,4702.44 -1644.53,4707.2 -1649.14,4708.37C-1649.84,4708.55 -1650.56,4708.63 -1651.28,4708.63C-1655.24,4708.63 -1658.73,4705.92 -1659.7,4702.07C-1660.87,4697.45 -1658.03,4692.69 -1653.41,4691.52C-1653.4,4691.52 -1653.4,4691.52 -1653.39,4691.52C-1652.77,4691.37 -1652.13,4691.28 -1651.49,4691.27L-1651.49,4691.27ZM-1582.34,4696.98L-1593.18,4698.61C-1593.06,4702.14 -1592.72,4705.35 -1592.25,4708.38C-1589.06,4704.45 -1585.75,4700.65 -1582.34,4696.98Z" style="fill:rgb(245,185,1);fill-rule:nonzero;"/>
                </g>
            </g>
        </g>
    </g>
</svg>
