<?xml version="1.0" encoding="UTF-8" standalone="no"?>
<svg
   width="100%"
   height="100%"
   viewBox="0 0 100 30"
   version="1.1"
   xml:space="preserve"
   style="fill-rule:evenodd;clip-rule:evenodd;stroke-linejoin:round;stroke-miterlimit:2;"
   id="svg1"
   sodipodi:docname="logo_default.svg"
   inkscape:version="1.4 (e7c3feb100, 2024-10-09)"
   xmlns:inkscape="http://www.inkscape.org/namespaces/inkscape"
   xmlns:sodipodi="http://sodipodi.sourceforge.net/DTD/sodipodi-0.dtd"
   xmlns="http://www.w3.org/2000/svg"
   xmlns:svg="http://www.w3.org/2000/svg"><defs
   id="defs1">
        
    
            
        
                
                
            </defs><sodipodi:namedview
   id="namedview1"
   pagecolor="#ffffff"
   bordercolor="#999999"
   borderopacity="1"
   inkscape:showpageshadow="0"
   inkscape:pageopacity="0"
   inkscape:pagecheckerboard="0"
   inkscape:deskcolor="#d1d1d1"
   inkscape:zoom="7.6996113"
   inkscape:cx="71.821807"
   inkscape:cy="16.104709"
   inkscape:window-width="3072"
   inkscape:window-height="1728"
   inkscape:window-x="0"
   inkscape:window-y="0"
   inkscape:window-maximized="1"
   inkscape:current-layer="svg1" />
    <path
   id="path1923"
   d="m 10.152127,3.7569435 c -1.8889976,0 -3.382655,0.499235 -4.4796228,1.4842124 -1.0976426,0.9714844 -1.6461265,2.3882326 -1.6461265,4.2367517 0,1.3155524 0.2793018,2.4219644 0.8372307,3.3192384 0.5754696,0.883781 1.2777719,1.679859 2.1055577,2.381487 l 1.8876483,1.63938 c 0.7380583,0.634163 1.3222986,1.26158 1.7540696,1.888997 0.43177,0.613924 0.648331,1.369523 0.648331,2.266797 0,0.3778 -0.08163,0.742106 -0.243546,1.079427 -0.143699,0.344068 -0.467527,0.512728 -0.971485,0.512728 -0.3953399,0 -0.7373834,-0.121435 -1.0247809,-0.377799 C 8.7495463,21.938545 8.5329862,21.527014 8.3710722,20.946822 8.2266988,20.373376 8.1464164,19.617777 8.128201,18.680025 l -4.1281344,0.62067 c 0.053971,1.619141 0.3150578,2.948186 0.7825848,3.973642 0.4682015,1.005216 1.1603842,1.747322 2.0778973,2.233065 0.9175131,0.485742 2.0603567,0.728613 3.4278563,0.728613 1.169154,0 2.17572,-0.242871 3.021047,-0.728613 0.863541,-0.485743 1.530088,-1.140145 1.997615,-1.969955 0.467526,-0.843303 0.700953,-1.781055 0.700953,-2.806511 0,-1.511198 -0.331924,-2.779525 -0.997121,-3.804981 -0.647657,-1.025456 -1.449131,-1.936222 -2.4024,-2.745793 L 10.800458,12.581261 C 10.171017,12.028054 9.6576144,11.495087 9.2615996,10.989106 8.8838001,10.469631 8.6949003,9.8084822 8.6949003,8.9921654 c 0,-0.3710531 0.098498,-0.7488526 0.2968425,-1.1333986 0.2158854,-0.3777995 0.5484839,-0.5666993 0.9984702,-0.5666993 0.413555,0 0.720518,0.1416749 0.918188,0.4115317 0.198344,0.2496175 0.323153,0.6139242 0.377125,1.0996664 0.07219,0.4722494 0.118062,1.0254559 0.135603,1.6731124 L 15.576923,9.9636499 C 15.559383,9.3159935 15.477076,8.6413515 15.333378,7.9397239 15.20722,7.2246033 14.956253,6.5499613 14.578453,5.9157979 14.218194,5.2681415 13.678481,4.7486672 12.958638,4.3506284 12.25701,3.9593361 11.321956,3.7569435 10.152127,3.7569435 Z m 34.26844,0 c -1.888997,0 -3.382655,0.499235 -4.479622,1.4842124 -1.097643,0.9714844 -1.646127,2.3882326 -1.646127,4.2367517 0,1.3155524 0.279302,2.4219644 0.836556,3.3192384 0.576144,0.883781 1.277097,1.679859 2.104883,2.381487 l 1.888998,1.63938 c 0.738058,0.634163 1.322298,1.26158 1.754069,1.888997 0.431771,0.613924 0.646982,1.369523 0.646982,2.266797 0,0.3778 -0.08028,0.742106 -0.242197,1.079427 -0.144373,0.344068 -0.467527,0.512728 -0.971484,0.512728 -0.396015,0 -0.737384,-0.121435 -1.024781,-0.377799 -0.269857,-0.249618 -0.486417,-0.661149 -0.648331,-1.241341 -0.144374,-0.573446 -0.224656,-1.329045 -0.242872,-2.266797 l -4.129483,0.62067 c 0.05397,1.619141 0.315058,2.948186 0.782584,3.973642 0.468202,1.005216 1.160385,1.747322 2.077898,2.233065 0.917513,0.485742 2.060356,0.728613 3.427181,0.728613 1.169829,0 2.177745,-0.242871 3.023071,-0.728613 0.863542,-0.485743 1.528739,-1.140145 1.996266,-1.969955 0.467527,-0.843303 0.702302,-1.781055 0.702302,-2.806511 0,-1.511198 -0.333273,-2.779525 -0.999145,-3.804981 -0.647656,-1.025456 -1.448456,-1.936222 -2.401725,-2.745793 l -1.808041,-1.598901 c -0.629441,-0.553207 -1.141494,-1.086174 -1.537509,-1.592155 -0.3778,-0.519475 -0.566699,-1.1806238 -0.566699,-1.9969406 0,-0.3710531 0.0985,-0.7488526 0.296168,-1.1333986 0.21656,-0.3777995 0.549158,-0.5666993 0.999144,-0.5666993 0.413556,0 0.719169,0.1416749 0.916839,0.4115317 0.198345,0.2496175 0.324503,0.6139242 0.378474,1.0996664 0.07151,0.4722494 0.116713,1.0254559 0.134254,1.6731124 L 49.844014,9.9636499 C 49.826474,9.3159935 49.745517,8.6413515 49.601818,7.9397239 49.47566,7.2246033 49.223344,6.5499613 48.845544,5.9157979 48.485285,5.2681415 47.946921,4.7486672 47.227078,4.3506284 46.52545,3.9593361 45.589722,3.7569435 44.420567,3.7569435 Z M 15.312464,4.0605324 17.95706,25.918933 h 4.263738 l 1.754069,-13.202744 1.861337,13.202744 h 4.210441 L 32.663581,4.0605324 H 28.615729 L 27.294106,16.71007 25.566347,4.0807716 H 22.355052 L 20.7096,16.791027 19.414287,4.0605324 Z m 17.749831,0 V 25.918933 h 4.829762 V 4.0605324 Z m 17.617601,0 V 25.918933 h 5.58671 c 1.888998,0 3.354995,-0.242871 4.397991,-0.73536 1.061887,-0.485742 1.808716,-1.241341 2.240487,-2.266797 0.43177,-1.038948 0.646981,-2.381486 0.646981,-4.020866 v -7.927044 c 0,-1.6258868 -0.215211,-2.9346923 -0.646981,-3.9399088 C 62.473313,5.9967549 61.726484,5.2546487 60.664597,4.7823993 59.603386,4.2966571 58.119173,4.0605324 56.212635,4.0605324 Z m 16.350623,0 -4.129483,21.8584006 h 4.56058 l 0.756273,-4.621298 h 3.211296 l 0.728614,4.621298 h 4.451962 L 72.534249,4.0605324 Z m 6.695148,0 v 3.582349 h 3.292927 V 25.918933 h 4.856748 V 7.6428814 h 3.265267 v -3.582349 z m 12.694063,0 -4.129483,21.8584006 h 4.56058 L 87.6071,21.297635 h 3.211296 l 0.728614,4.621298 h 4.451962 L 91.92346,4.0605324 Z m -30.909397,3.37321 h 0.728613 c 0.719843,0 1.241341,0.087703 1.565169,0.2698568 0.323829,0.1754069 0.530944,0.4655029 0.620671,0.8567953 0.107943,0.3980388 0.162589,0.9242595 0.162589,1.5719155 v 9.519199 c 0,0.647656 -0.04588,1.18737 -0.136278,1.619141 -0.07151,0.431771 -0.268507,0.755599 -0.592336,0.971484 -0.323828,0.215886 -0.854771,0.323828 -1.592155,0.323828 h -0.756273 z m 14.299037,2.4489504 1.161059,8.5274752 h -2.322118 z m 19.389211,0 1.161059,8.5274752 h -2.321443 z"
   style="fill:#283c33;fill-opacity:1;fill-rule:nonzero;stroke-width:0.674642" /><g
   id="path1925"
   transform="matrix(0.1784988,0,0,0.1784988,322.649,-819.394)">
                    <path
   d="m -1652.05,4659.11 -2.61,24.99 -3.39,-24.76 c -3.8,0.3 -7.5,0.89 -11.08,1.78 -1.37,0.34 -2.72,0.72 -4.05,1.15 l 10.36,73.38 h 23.58 l 8.82,-73.69 c -7.41,-1.89 -14.66,-2.84 -21.63,-2.85 z m -21.28,3.21 c -3.88,1.25 -7.58,2.86 -11.1,4.82 -1.82,1.02 -3.58,2.13 -5.29,3.33 l -1.83,14.08 -1.2,-11.82 c -7.69,6.13 -14.07,14.19 -18.93,23.92 l 4.71,39 h 23.89 z m 50.99,2.04 v 71.29 h 10.99 c 4.9,-8.15 10.27,-15.99 16.06,-23.44 v -44.43 c -0.78,0.17 -1.56,0.36 -2.33,0.56 -3.01,0.76 -5.98,1.65 -8.91,2.67 -5.29,-2.65 -10.57,-4.87 -15.81,-6.65 z m 50.24,0.76 c -4.51,0.01 -9.02,0.32 -13.49,0.91 2.63,3.42 5.65,6.57 9.04,9.45 l 8.53,7.43 c 6.22,-5.56 12.66,-10.67 19.28,-15.27 -7.66,-1.7 -15.5,-2.55 -23.36,-2.52 z m -79.39,26.15 c 4.04,-0.1 7.64,2.63 8.64,6.55 1.16,4.62 -1.68,9.38 -6.29,10.55 -0.7,0.18 -1.42,0.26 -2.14,0.26 -3.96,0 -7.45,-2.71 -8.42,-6.56 -1.17,-4.62 1.67,-9.38 6.29,-10.55 0.01,0 0.01,0 0.02,0 0.62,-0.15 1.26,-0.24 1.9,-0.25 z m 69.15,5.71 -10.84,1.63 c 0.12,3.53 0.46,6.74 0.93,9.77 3.19,-3.93 6.5,-7.73 9.91,-11.4 z"
   style="fill:#f5b901;fill-rule:nonzero"
   id="path1" />
                </g>
</svg>
