<?xml version="1.0" encoding="UTF-8" standalone="no"?>
<!DOCTYPE svg PUBLIC "-//W3C//DTD SVG 1.1//EN" "http://www.w3.org/Graphics/SVG/1.1/DTD/svg11.dtd">
<svg width="100%" height="100%" viewBox="0 0 248 248" version="1.1" xmlns="http://www.w3.org/2000/svg" xmlns:xlink="http://www.w3.org/1999/xlink" xml:space="preserve" xmlns:serif="http://www.serif.com/" style="fill-rule:evenodd;clip-rule:evenodd;stroke-linecap:round;stroke-linejoin:round;stroke-miterlimit:1.5;">
    <g transform="matrix(1,0,0,1,-993.074,-1659.85)">
        <g transform="matrix(9.88333,0,0,9.88333,-13449.6,-4100.71)">
            <path d="M1486.32,595.356C1486.32,602.259 1480.72,607.856 1473.82,607.856C1466.91,607.856 1461.32,602.259 1461.32,595.356C1461.32,588.452 1466.91,582.856 1473.82,582.856C1480.72,582.856 1486.32,588.452 1486.32,595.356Z" style="fill:rgb(225,225,225);"/>
        </g>
        <g transform="matrix(0.789474,0,0,0.789474,795.684,773.711)">
            <rect x="449" y="1179" width="57" height="57" style="fill:rgb(42,60,51);stroke:rgb(254,196,10);stroke-width:5.28px;"/>
        </g>
        <g transform="matrix(0.789474,0,0,0.789474,682.684,886.711)">
            <rect x="449" y="1179" width="57" height="57" style="fill:rgb(42,60,51);stroke:rgb(254,196,10);stroke-width:5.28px;"/>
        </g>
        <g transform="matrix(1,0,0,1,701.157,511.5)">
            <circle cx="471.5" cy="1328.5" r="22.5" style="fill:rgb(254,196,10);stroke:rgb(42,60,51);stroke-width:4.17px;"/>
        </g>
        <g transform="matrix(1,0,0,1,588.157,398.5)">
            <circle cx="471.5" cy="1328.5" r="22.5" style="fill:rgb(254,196,10);stroke:rgb(42,60,51);stroke-width:4.17px;"/>
        </g>
        <g transform="matrix(0.800535,0,0,0.800535,623.046,512.145)">
            <path d="M619.288,1554.16L620.371,1559.43C622.468,1559.75 624.522,1560.3 626.498,1561.07L630.073,1557.05C632.073,1557.96 633.98,1559.06 635.768,1560.34L634.07,1565.45C635.725,1566.77 637.229,1568.28 638.554,1569.93L643.663,1568.23C644.94,1570.02 646.041,1571.93 646.951,1573.93L642.926,1577.5C643.696,1579.48 644.247,1581.53 644.567,1583.63L649.841,1584.71C650.053,1586.9 650.053,1589.1 649.841,1591.29L644.567,1592.37C644.247,1594.47 643.696,1596.52 642.926,1598.5L646.951,1602.07C646.041,1604.07 644.94,1605.98 643.663,1607.77L638.554,1606.07C637.229,1607.73 635.725,1609.23 634.07,1610.55L635.768,1615.66C633.98,1616.94 632.073,1618.04 630.073,1618.95L626.498,1614.93C624.522,1615.7 622.468,1616.25 620.371,1616.57L619.288,1621.84C617.101,1622.05 614.899,1622.05 612.712,1621.84L611.629,1616.57C609.532,1616.25 607.478,1615.7 605.502,1614.93L601.927,1618.95C599.927,1618.04 598.02,1616.94 596.232,1615.66L597.93,1610.55C596.275,1609.23 594.771,1607.73 593.446,1606.07L588.337,1607.77C587.06,1605.98 585.959,1604.07 585.049,1602.07L589.074,1598.5C588.304,1596.52 587.753,1594.47 587.433,1592.37L582.159,1591.29C581.947,1589.1 581.947,1586.9 582.159,1584.71L587.433,1583.63C587.753,1581.53 588.304,1579.48 589.074,1577.5L585.049,1573.93C585.959,1571.93 587.06,1570.02 588.337,1568.23L593.446,1569.93C594.771,1568.28 596.275,1566.77 597.93,1565.45L596.232,1560.34C598.02,1559.06 599.927,1557.96 601.927,1557.05L605.502,1561.07C607.478,1560.3 609.532,1559.75 611.629,1559.43L612.712,1554.16C614.899,1553.95 617.101,1553.95 619.288,1554.16ZM616,1581.2C619.753,1581.2 622.8,1584.25 622.8,1588C622.8,1591.75 619.753,1594.8 616,1594.8C612.247,1594.8 609.2,1591.75 609.2,1588C609.2,1584.25 612.247,1581.2 616,1581.2Z" style="fill:rgb(3,104,255);"/>
        </g>
        <g transform="matrix(0.317301,0,0,1,964.957,218.166)">
            <path d="M387.645,1508.83L571.774,1508.83" style="fill:none;"/>
            <g transform="matrix(3.15158,-0,-0,1,88.6126,1441.69)">
                <path d="M147.683,63.396C149.752,63.396 151.433,65.077 151.433,67.146C151.433,69.216 149.752,70.896 147.683,70.896C145.613,70.896 143.933,69.216 143.933,67.146C143.933,65.077 145.613,63.396 147.683,63.396ZM147.683,65.271C148.718,65.271 149.558,66.111 149.558,67.146C149.558,68.181 148.718,69.021 147.683,69.021C146.648,69.021 145.808,68.181 145.808,67.146C145.808,66.111 146.648,65.271 147.683,65.271Z" style="fill:none;stroke:rgb(103,103,103);stroke-width:3.75px;stroke-linejoin:miter;stroke-miterlimit:10;"/>
                <path d="M94.883,67.146L143.933,67.146" style="fill:none;stroke:rgb(103,103,103);stroke-width:3.75px;"/>
            </g>
        </g>
        <g transform="matrix(-0.0913345,0.092841,-0.712867,-0.7013,2211.79,2820.76)">
            <path d="M440.652,1508.83L571.774,1508.83" style="fill:rgb(9,9,9);"/>
            <g transform="matrix(-5.38483,-0.712867,5.47365,-0.7013,208.181,1682.93)">
                <path d="M98.85,155.782C96.673,157.995 93.108,158.024 90.895,155.847C88.682,153.669 88.653,150.105 90.83,147.892C93.007,145.679 96.572,145.65 98.785,147.827C100.998,150.004 101.027,153.568 98.85,155.782Z" style="fill:rgb(103,103,103);"/>
                <path d="M102.871,143.673C102.871,143.673 97.546,149.087 97.207,149.431" style="fill:none;stroke:rgb(103,103,103);stroke-width:3.75px;"/>
            </g>
        </g>
        <g transform="matrix(-0.0913345,0.092841,-0.712867,-0.7013,2263.23,2770.17)">
            <path d="M440.652,1508.83L571.774,1508.83" style="fill:rgb(9,9,9);"/>
            <g transform="matrix(-5.38483,-0.712867,5.47365,-0.7013,762.068,1684.11)">
                <path d="M150.286,105.192C148.109,107.405 144.545,107.434 142.332,105.257C140.119,103.08 140.089,99.515 142.267,97.302C144.444,95.089 148.008,95.06 150.221,97.237C152.434,99.414 152.464,102.979 150.286,105.192Z" style="fill:rgb(103,103,103);"/>
                <path d="M154.308,93.083C154.308,93.083 148.982,98.497 148.643,98.841" style="fill:none;stroke:rgb(103,103,103);stroke-width:3.75px;"/>
            </g>
        </g>
        <g transform="matrix(0.445572,0,0,1,891.615,332.166)">
            <path d="M440.652,1508.83L571.774,1508.83" style="fill:none;"/>
            <g transform="matrix(2.24431,-0,-0,1,227.705,1327.69)">
                <circle cx="147.683" cy="181.146" r="5.625" style="fill:rgb(103,103,103);"/>
                <path d="M94.883,181.146L144.308,181.146" style="fill:none;stroke:rgb(103,103,103);stroke-width:3.75px;"/>
            </g>
        </g>
        <g transform="matrix(2.57957,0,0,2.03249,-422.951,-1476.24)">
            <path d="M553.306,1592.48L553.306,1617.16L557.806,1617.16L557.806,1610.36L561.722,1610.36C566.917,1610.36 570.167,1606.93 570.167,1601.43C570.167,1595.9 566.917,1592.48 561.722,1592.48L553.306,1592.48ZM557.806,1605.7L557.806,1597.13L561.472,1597.13C564.222,1597.13 565.611,1598.72 565.611,1601.43C565.611,1604.12 564.222,1605.7 561.472,1605.7L557.806,1605.7Z" style="fill:rgb(3,104,255);fill-rule:nonzero;"/>
        </g>
        <g transform="matrix(1.71983,0,0,2.03263,247.915,-1478.61)">
            <path d="M569.5,1592.48L552.625,1592.48L552.625,1597.06L557.708,1597.06L557.708,1612.58L552.625,1612.58L552.625,1617.16L569.5,1617.16L569.5,1612.58L564.458,1612.58L564.458,1597.06L569.5,1597.06L569.5,1592.48Z" style="fill:rgb(3,104,255);fill-rule:nonzero;"/>
        </g>
    </g>
</svg>
